<?xml version="1.0" standalone="no"?>
<!DOCTYPE svg PUBLIC "-//W3C//DTD SVG 20010904//EN"
 "http://www.w3.org/TR/2001/REC-SVG-20010904/DTD/svg10.dtd">
<svg version="1.0" xmlns="http://www.w3.org/2000/svg"
 width="843.000000pt" height="525.000000pt" viewBox="0 0 843.000000 525.000000"
 preserveAspectRatio="xMidYMid meet">

<g transform="translate(0.000000,525.000000) scale(0.100000,-0.100000)"
fill="#9f84ff" stroke="none">
<path d="M1821 3988 c-6 -51 -25 -313 -41 -583 -66 -1091 -114 -1635 -142
-1607 -5 5 -20 69 -33 143 -22 117 -43 174 -60 158 -3 -4 -41 -271 -46 -332
-5 -53 -21 105 -34 333 -19 338 -38 502 -55 483 -11 -12 -28 -135 -45 -328
-40 -444 -96 -795 -127 -795 -4 0 -8 3 -8 6 0 20 -53 347 -61 379 -12 45 -35
85 -49 85 -22 0 -34 -61 -76 -379 -24 -185 -48 -353 -53 -373 -6 -25 -27 -55
-66 -93 -53 -51 -59 -54 -75 -40 -20 18 -36 19 -46 3 -5 -7 -2 -9 9 -5 8 3 21
-1 27 -9 20 -23 43 -16 70 21 14 19 33 37 43 41 44 14 50 43 106 474 22 168
43 313 46 323 13 33 32 17 48 -40 13 -47 67 -371 67 -402 0 -5 9 -7 19 -4 42
11 91 302 141 836 11 120 24 225 29 234 13 23 28 -113 41 -357 16 -321 34
-510 46 -498 2 3 13 81 24 174 25 217 30 245 40 239 4 -3 20 -70 35 -150 23
-121 30 -145 45 -145 15 0 20 18 33 108 32 216 76 771 117 1502 23 411 38 592
50 603 7 8 19 -64 40 -248 6 -49 22 -148 35 -220 30 -156 46 -336 80 -885 37
-593 60 -810 85 -810 3 0 15 7 26 15 10 8 22 15 26 15 12 0 27 -65 63 -290 56
-345 69 -373 143 -295 44 47 85 64 111 48 9 -5 26 -30 37 -54 38 -78 48 -79
79 -4 16 36 33 65 39 65 6 0 23 -21 38 -45 15 -25 40 -50 55 -57 15 -6 38 -21
50 -32 19 -16 27 -17 48 -8 20 9 32 8 61 -5 34 -17 38 -16 102 5 78 26 121 28
215 13 76 -12 94 -20 121 -50 26 -28 40 -26 69 9 19 23 34 30 60 30 25 0 48
11 86 41 40 32 57 40 76 35 30 -8 43 11 76 104 36 104 47 109 78 36 10 -23 25
-47 34 -54 13 -12 18 -9 30 15 8 15 22 52 32 81 9 29 27 65 39 80 31 37 39 53
75 157 18 49 41 104 53 123 17 28 23 31 34 20 7 -7 31 -87 53 -178 35 -145 44
-168 69 -190 16 -14 42 -44 57 -68 19 -29 38 -45 57 -49 20 -4 42 -22 68 -59
67 -90 97 -86 160 23 39 68 52 81 99 106 30 15 64 27 76 27 17 0 30 15 53 59
55 103 75 104 122 10 27 -52 34 -60 53 -55 15 4 31 -3 53 -25 17 -16 37 -27
45 -24 14 5 100 154 134 233 10 23 23 42 30 42 6 0 31 -41 56 -92 24 -51 49
-93 55 -95 11 -4 22 32 65 212 12 50 28 103 36 119 14 27 17 28 28 13 7 -10
23 -58 35 -107 24 -92 37 -107 73 -86 15 9 23 6 41 -16 30 -39 48 -35 90 17
21 25 43 45 50 45 7 0 22 -40 36 -95 13 -52 27 -95 31 -95 10 0 34 88 49 174
11 67 29 115 55 146 7 8 23 60 35 115 21 93 33 125 44 114 3 -2 19 -74 36
-159 17 -85 39 -170 47 -188 30 -63 89 -64 147 -5 32 33 35 34 44 16 6 -10 18
-48 26 -83 42 -167 79 -188 152 -89 20 27 44 49 54 49 9 0 40 -18 68 -40 27
-22 55 -40 62 -40 7 0 25 9 41 21 26 18 38 20 103 14 l74 -7 15 -42 c8 -22 20
-58 27 -78 6 -21 18 -38 26 -38 17 0 27 21 55 124 34 126 55 146 83 76 9 -22
16 -45 16 -51 0 -25 44 -109 60 -114 26 -8 49 4 66 36 27 53 38 36 74 -116 26
-107 63 -179 106 -209 17 -11 51 -46 75 -76 38 -47 53 -57 95 -67 27 -6 69
-11 94 -11 35 0 28 3 -35 13 -44 7 -87 16 -95 19 -8 4 -33 31 -55 60 -22 29
-52 60 -67 69 -49 28 -90 114 -117 245 -6 29 -18 69 -26 90 l-16 37 -39 -43
c-57 -61 -79 -46 -111 78 -15 61 -36 100 -54 100 -20 0 -39 -39 -69 -145 -14
-49 -30 -93 -35 -98 -5 -5 -21 27 -36 72 -16 45 -33 81 -39 82 -6 0 -29 2 -51
5 -68 8 -97 4 -132 -17 l-33 -21 -32 23 c-18 13 -45 33 -60 45 -36 29 -55 22
-101 -37 -67 -86 -89 -69 -138 104 -12 44 -29 81 -36 84 -8 3 -29 -10 -47 -31
-26 -28 -41 -36 -68 -36 -59 0 -63 9 -113 254 -14 71 -28 133 -31 138 -3 4
-13 4 -23 -1 -12 -7 -24 -41 -40 -113 -15 -67 -33 -118 -51 -146 -18 -26 -32
-68 -39 -110 -20 -119 -33 -165 -42 -151 -5 8 -16 47 -26 87 -20 86 -31 90
-88 32 -46 -47 -59 -49 -92 -14 -18 20 -27 24 -36 15 -28 -28 -43 -12 -66 77
-22 85 -43 132 -59 132 -15 0 -40 -66 -62 -161 -30 -131 -51 -202 -57 -195 -4
3 -25 43 -47 88 -60 119 -66 117 -146 -43 -36 -72 -70 -135 -77 -141 -9 -7
-20 -1 -39 22 -21 24 -32 30 -50 26 -21 -6 -27 1 -53 52 -52 103 -76 103 -133
0 -27 -49 -41 -64 -64 -69 -16 -3 -50 -15 -76 -26 -40 -18 -52 -32 -93 -101
-25 -44 -52 -82 -59 -85 -28 -11 -55 6 -89 58 -26 38 -43 54 -65 58 -19 4 -39
19 -53 39 -12 18 -38 49 -57 69 -30 33 -38 53 -68 180 -35 147 -56 209 -73
209 -20 0 -59 -68 -91 -158 -18 -51 -50 -119 -71 -152 -22 -32 -39 -61 -39
-64 0 -21 -43 -115 -51 -111 -5 4 -21 31 -35 61 -14 30 -29 54 -33 54 -16 0
-39 -37 -56 -90 -30 -93 -42 -110 -76 -110 -21 0 -45 -12 -78 -40 -35 -29 -56
-40 -81 -40 -25 0 -43 -9 -66 -31 l-33 -32 -31 31 c-22 23 -43 32 -78 37 -26
3 -65 10 -87 16 -46 11 -116 1 -188 -27 -45 -18 -49 -18 -80 -1 -25 13 -39 16
-58 9 -20 -8 -30 -5 -54 14 -17 13 -36 24 -43 24 -6 0 -28 22 -48 50 -50 70
-64 67 -100 -22 -10 -27 -22 -48 -26 -48 -4 0 -19 25 -34 56 -40 85 -89 89
-161 13 -21 -21 -41 -39 -46 -39 -10 0 -38 66 -44 105 -30 202 -77 458 -89
487 -16 35 -18 36 -38 23 -11 -8 -23 -15 -27 -15 -25 0 -47 212 -84 815 -32
526 -49 710 -79 866 -14 70 -30 173 -36 230 -16 154 -41 319 -49 319 -4 0 -13
-42 -20 -92z"/>
</g>
</svg>
